<?xml version="1.0" encoding="UTF-8" standalone="no"?>
<svg
   version="1.1"
   width="16"
   height="16"
   viewBox="0 0 159.9984 159.9984"
   id="svg1"
   sodipodi:docname="envelope-o.svg"
   inkscape:version="1.3 (0e150ed6c4, 2023-07-21)"
   xmlns:inkscape="http://www.inkscape.org/namespaces/inkscape"
   xmlns:sodipodi="http://sodipodi.sourceforge.net/DTD/sodipodi-0.dtd"
   xmlns="http://www.w3.org/2000/svg"
   xmlns:svg="http://www.w3.org/2000/svg"
   xmlns:rdf="http://www.w3.org/1999/02/22-rdf-syntax-ns#"
   xmlns:cc="http://creativecommons.org/ns#"
   xmlns:dc="http://purl.org/dc/elements/1.1/">
  <defs
     id="defs1" />
  <sodipodi:namedview
     id="namedview1"
     pagecolor="#ffffff"
     bordercolor="#000000"
     borderopacity="0.25"
     inkscape:showpageshadow="2"
     inkscape:pageopacity="0.0"
     inkscape:pagecheckerboard="0"
     inkscape:deskcolor="#d1d1d1"
     inkscape:zoom="25.40625"
     inkscape:cx="19.050431"
     inkscape:cy="7.8917589"
     inkscape:window-width="1920"
     inkscape:window-height="1009"
     inkscape:window-x="-8"
     inkscape:window-y="-8"
     inkscape:window-maximized="1"
     inkscape:current-layer="svg1" />
  <title
     id="title1">envelope-o</title>
  <path
     d="M 148.31963,141.75342 V 54.520519 c -1.87182,2.725967 -3.92209,5.224935 -6.15018,7.496507 -12.74617,12.494043 -25.58155,25.215486 -37.97113,38.391714 -6.684892,7.15581 -14.974561,15.9018 -24.244441,15.9018 h -0.178135 c -9.270191,0 -17.559236,-8.74599 -24.244756,-15.9018 C 43.141408,87.232907 30.306023,74.511468 17.559548,62.017026 15.331146,59.745454 13.280879,57.246486 11.409059,54.520519 v 87.232901 c 0,1.93088 1.336791,3.63475 2.852342,3.63475 H 145.46729 c 1.51523,0 2.85234,-1.70387 2.85234,-3.63475 z m 0,-119.376803 c 0,-2.839664 0.53472,-7.8376 -2.85234,-7.8376 H 14.261401 c -1.515239,0 -2.852342,1.703481 -2.852342,3.634754 0,12.948836 5.080432,24.193399 13.102743,32.257997 11.943776,11.926348 23.887863,23.966399 35.742726,36.006447 4.724162,4.884238 13.28119,15.334115 19.520592,15.334115 h 0.178447 c 6.239402,0 14.796118,-10.449877 19.520593,-15.334115 11.85486,-12.040048 23.79895,-24.080099 35.74304,-36.006447 5.79391,-5.793027 13.10274,-18.40077 13.10274,-28.055547 z M 159.729,18.173771 V 141.75342 c 0,9.99548 -6.41785,18.17338 -14.2614,18.17338 H 14.261713 C 6.4178488,159.9268 0,151.7485 0,141.75342 V 18.173771 C 0,8.178296 6.4178488,0 14.261713,0 H 145.4676 c 7.84386,0 14.2614,8.178296 14.2614,18.173771 z"
     id="path1"
     style="stroke-width:0.352168" />
  <metadata
     id="metadata1">
    <rdf:RDF>
      <cc:Work
         rdf:about="">
        <dc:title>envelope-o</dc:title>
      </cc:Work>
    </rdf:RDF>
  </metadata>
</svg>
