<?xml version="1.0" encoding="UTF-8" standalone="no"?>
<svg
   role="img"
   viewBox="0 0 19.995474 19.995715"
   version="1.1"
   id="svg1"
   sodipodi:docname="logo-cosmetic.svg"
   width="41.990498"
   height="41.991001"
   inkscape:version="1.3 (0e150ed6c4, 2023-07-21)"
   xmlns:inkscape="http://www.inkscape.org/namespaces/inkscape"
   xmlns:sodipodi="http://sodipodi.sourceforge.net/DTD/sodipodi-0.dtd"
   xmlns="http://www.w3.org/2000/svg"
   xmlns:svg="http://www.w3.org/2000/svg"
   xmlns:rdf="http://www.w3.org/1999/02/22-rdf-syntax-ns#"
   xmlns:cc="http://creativecommons.org/ns#"
   xmlns:dc="http://purl.org/dc/elements/1.1/">
  <defs
     id="defs1" />
  <sodipodi:namedview
     id="namedview1"
     pagecolor="#ffffff"
     bordercolor="#000000"
     borderopacity="0.25"
     inkscape:showpageshadow="2"
     inkscape:pageopacity="0.0"
     inkscape:pagecheckerboard="0"
     inkscape:deskcolor="#d1d1d1"
     inkscape:zoom="11.976621"
     inkscape:cx="35.986778"
     inkscape:cy="23.504125"
     inkscape:window-width="1920"
     inkscape:window-height="1009"
     inkscape:window-x="-8"
     inkscape:window-y="-8"
     inkscape:window-maximized="1"
     inkscape:current-layer="svg1" />
  <title
     id="title1">Spond</title>
  <path
     d="M 9.9722399,0 C 4.4650705,0 0,4.4650705 0,9.9722399 0,15.479409 4.4650705,19.94448 9.9722399,19.94448 15.479409,19.94448 19.94448,15.479409 19.94448,9.9722399 19.94448,4.4650705 15.479409,0 9.9722399,0 Z M 8.8063187,1.8955565 A 3.1304524,3.1304524 0 0 0 8.6650455,4.2614707 c 0.5069221,1.4875257 1.9412625,2.3035873 3.3814205,2.6700671 2.188075,0.5584455 3.918258,1.1534559 4.896371,2.079212 0.861766,0.8160628 1.192513,2.0077432 0.667309,3.8376502 -0.141274,0.490303 -0.403877,0.934067 -0.666478,1.365366 -0.10388,-0.586701 -0.352354,-1.17257 -0.767864,-1.740156 C 13.459199,8.7655994 7.5016175,9.5068696 5.2279467,6.401347 4.5606377,5.4905491 4.6071749,4.5431863 5.3044006,3.6689533 6.1179693,2.6501228 7.5398445,2.0758881 8.8063187,1.8955565 Z m 2.6285163,0.091413 c 0.114681,-0.00831 0.233517,0.00167 0.357339,0.029916 a 8.1730817,8.1730817 0 0 1 5.880297,5.2503841 C 16.414307,6.3265552 14.635093,5.7215727 12.492724,5.1755926 11.222925,4.8514948 10.581378,4.2722738 10.380271,3.6814186 10.109358,2.8869636 10.636225,2.035999 11.435666,1.9861378 Z M 3.0008132,5.7298829 c 0.103878,0.5867001 0.3523525,1.1734002 0.7678624,1.740156 2.7166045,3.7080121 8.6741864,2.9667401 10.9478574,6.0722631 0.667308,0.909967 0.620773,1.85816 -0.07646,2.732394 -0.813565,1.01883 -2.235441,1.592234 -3.501916,1.772566 0.354846,-0.739609 0.406368,-1.587248 0.141274,-2.365083 C 10.772512,14.194652 9.3381715,13.37859 7.8980142,13.012112 5.7099384,12.453667 3.9797549,11.858655 3.0016442,10.932899 2.1398765,10.116838 1.8091305,8.9251547 2.3343351,7.0952488 2.4756086,6.6049471 2.7382109,6.1611824 3.0008132,5.7298829 Z M 2.2720087,12.67721 c 1.2581643,0.939053 3.0373781,1.544035 5.1797476,2.090848 1.2697986,0.324096 1.9113458,0.903318 2.112453,1.494173 0.279222,0.818554 -0.2883638,1.696942 -1.1276942,1.696942 -0.091412,0 -0.1869796,-0.01 -0.2842088,-0.03241 A 8.1730817,8.1730817 0 0 1 2.2720087,12.676379 Z"
     id="path1"
     style="stroke-width:0.83102" />
  <metadata
     id="metadata1">
    <rdf:RDF>
      <cc:Work
         rdf:about="">
        <dc:title>Spond</dc:title>
      </cc:Work>
    </rdf:RDF>
  </metadata>
  <path
     style="fill:#000000;stroke:#006600;stroke-width:0.00333984"
     d="M 18.786601,41.739103 C 11.585232,40.96231 5.2204134,36.461842 2.0901848,29.933318 -0.93358556,23.626827 -0.56292358,16.091429 3.0634033,10.148206 4.6701106,7.5149581 7.0823906,5.0266189 9.6020405,3.4034057 13.360932,0.98184588 17.630915,-0.14582597 22.139032,0.09247601 27.155617,0.35765598 31.993199,2.512229 35.612186,6.0931794 c 6.850966,6.7789586 8.198521,17.3463826 3.258359,25.5518066 -3.244555,5.389084 -8.594706,8.969479 -14.913968,9.980632 -1.004478,0.160727 -4.101726,0.228715 -5.169976,0.113485 z m 5.53513,-3.962627 c 1.001171,-0.203339 2.531452,-0.742259 3.455597,-1.21696 1.548383,-0.79535 2.802098,-1.896331 3.477887,-3.054193 0.514951,-0.882291 0.640669,-1.347861 0.637628,-2.361313 -0.0029,-0.962654 -0.138756,-1.416038 -0.719225,-2.400025 C 30.75836,28.040055 29.283112,26.597064 28.346894,25.979068 26.613526,24.834875 24.874228,24.1176 20.247781,22.639046 16.200849,21.345698 14.365947,20.62943 12.70774,19.695736 10.159411,18.260837 8.368033,16.561925 7.2304965,14.501216 6.8897327,13.883904 6.3874443,12.512234 6.3874443,12.198975 c 0,-0.339919 -0.1623732,-0.167048 -0.6389722,0.680284 -0.8959782,1.592933 -1.3786028,3.431817 -1.3860578,5.281122 -0.00551,1.367745 0.146214,2.091663 0.6539377,3.120049 0.8522022,1.72612 2.6833369,3.101682 5.712885,4.291562 1.275685,0.501036 2.415034,0.861985 4.669317,1.479251 2.283123,0.625164 2.672299,0.754696 3.671948,1.222151 3.972223,1.857488 5.775642,5.437166 4.522814,8.977511 -0.270955,0.765685 -0.311124,0.736702 0.728415,0.525571 z M 18.921382,37.4333 c 1.243267,-0.69761 1.689689,-2.338954 1.011079,-3.717406 -0.450514,-0.915125 -1.448611,-1.713677 -2.857354,-2.286101 -0.285058,-0.11583 -1.38801,-0.449274 -2.451001,-0.740989 -4.388743,-1.20439 -7.0641128,-2.268243 -9.115669,-3.624819 -0.4120406,-0.272458 -0.7612004,-0.48401 -0.7759106,-0.470113 -0.1052267,0.0994 1.1037209,2.622841 1.7104077,3.570136 1.3248183,2.068602 3.199728,3.940985 5.2882549,5.281131 0.900775,0.578001 2.656067,1.413553 3.673824,1.748811 1.454218,0.479031 1.75296,0.542476 2.430921,0.516261 0.524891,-0.0203 0.714175,-0.06859 1.085448,-0.276911 z m 17.152333,-8.316912 c 1.046254,-1.859809 1.530412,-3.853825 1.433623,-5.904406 -0.0546,-1.156699 -0.197464,-1.734163 -0.661054,-2.671965 -0.29168,-0.590041 -0.492519,-0.850509 -1.191052,-1.544676 C 33.864715,17.216019 31.592463,16.219258 25.576378,14.574086 23.278269,13.94564 21.980514,13.335445 20.623513,12.245288 19.480355,11.326922 18.706403,10.230461 18.227309,8.8505765 17.962735,8.0885544 17.95198,8.0081172 17.953789,6.8049244 17.955595,5.6033616 17.966872,5.520803 18.231378,4.7725894 18.383016,4.3436473 18.493125,3.9787366 18.476065,3.9616767 18.40942,3.8950315 16.738077,4.2827588 15.926462,4.5531475 14.142448,5.1474903 12.779293,5.9584519 11.647693,7.0986524 10.851081,7.9013191 10.389419,8.6209792 10.132559,9.4605123 9.991172,9.9226301 9.9657291,10.17982 9.9962719,10.838196 c 0.065228,1.406088 0.5411021,2.331397 1.9000001,3.694446 1.749806,1.755152 3.80717,2.791417 8.601997,4.332709 5.700167,1.832312 7.466523,2.536137 9.446102,3.763911 2.941588,1.824432 5.038264,4.46937 5.542386,6.991674 0.02991,0.14965 0.08738,0.251697 0.127712,0.22677 0.04033,-0.02493 0.246992,-0.35402 0.459246,-0.731318 z M 36.867043,14.495511 C 35.056733,9.938319 31.134126,6.2417977 26.446383,4.6754605 25.074926,4.2172088 24.296454,4.0720423 23.758046,4.1741492 c -1.05963,0.2009548 -1.772179,0.8935053 -2.053898,1.9962567 -0.356462,1.3953199 0.399681,2.7919901 2.03716,3.762834 0.758822,0.4498971 1.396663,0.6770181 3.552369,1.2649181 4.235282,1.155036 6.941402,2.229027 9.013639,3.577283 0.4207,0.273721 0.775829,0.466415 0.789173,0.42821 0.01335,-0.0382 -0.08991,-0.356867 -0.229446,-0.70814 z"
     id="path2"
     transform="scale(0.47619047)" />
  <path
     style="fill:#000000;stroke:#006600;stroke-width:0.00333984"
     d="M 19.204081,41.779848 C 12.986675,41.133642 7.8075565,38.234638 4.1559081,33.356654 -0.47101853,27.175863 -1.2488953,18.755719 2.1657999,11.814685 3.2684107,9.5734131 4.4297213,7.9571827 6.2154756,6.1786308 10.256497,2.1539075 15.27714,0.07532397 20.957497,0.07532397 c 4.258761,0 8.056347,1.15313233 11.590506,3.51944233 3.080868,2.0628072 5.45768,4.7723282 7.108567,8.1036347 3.598146,7.260656 2.682359,15.872546 -2.365286,22.242725 -0.254721,0.321459 -0.859091,0.992903 -1.343045,1.492095 -3.267059,3.369929 -7.269613,5.436816 -11.991662,6.192397 -0.798011,0.12769 -4.006141,0.231802 -4.752496,0.15423 z m 5.274912,-4.047063 c 2.295571,-0.497355 4.336527,-1.536129 5.714016,-2.908232 2.683775,-2.673279 2.251388,-5.670241 -1.206837,-8.364842 C 27.122571,25.007617 25.607713,24.368135 18.828349,22.171689 16.186882,21.31588 15.06184,20.88267 13.602705,20.159497 9.7971874,18.273417 7.1817153,15.493517 6.4823114,12.591463 6.4071731,12.27969 6.3254552,12.024338 6.300716,12.024014 6.2759768,12.02369 6.1303861,12.23025 5.9771812,12.483038 c -1.0730501,1.770524 -1.6146998,3.705204 -1.6128546,5.760839 0.00115,1.282926 0.1649606,2.041562 0.6570565,3.042981 0.3189569,0.64908 0.5146907,0.916899 1.1064005,1.51387 1.7311798,1.746572 4.2633484,2.893475 9.5636064,4.331672 1.913164,0.519127 2.398108,0.682302 3.350126,1.127263 1.977984,0.924483 3.352673,2.160594 4.187635,3.765497 0.84835,1.630635 0.985354,3.410192 0.395956,5.143094 -0.112463,0.330654 -0.204478,0.632182 -0.204478,0.67006 0,0.103282 0.175217,0.08581 1.058364,-0.105529 z M 18.614054,37.56811 c 0.557395,-0.208549 1.103102,-0.717107 1.383259,-1.289096 0.172636,-0.352463 0.20481,-0.541012 0.2066,-1.210692 0.0018,-0.684695 -0.0277,-0.856038 -0.21581,-1.25244 -0.295135,-0.621914 -0.79694,-1.165231 -1.527485,-1.653851 C 17.607592,31.591493 16.878413,31.309789 14.74731,30.72747 10.360167,29.52869 7.5881049,28.4337 5.5561856,27.096888 5.1702417,26.842973 4.8239609,26.635225 4.7866729,26.635225 c -0.1535718,0 0.8591143,2.212041 1.4859931,3.2459 2.2409356,3.695788 5.959648,6.483093 10.203924,7.648199 0.914929,0.25116 1.53955,0.262494 2.137464,0.03879 z M 36.3555,28.530341 c 0.872793,-1.749264 1.241382,-3.45354 1.150221,-5.318359 -0.0558,-1.141547 -0.19953,-1.719009 -0.665032,-2.671965 C 36.560398,19.966218 36.349495,19.685012 35.739415,19.07165 33.980598,17.303364 31.511816,16.188675 26.134249,14.734785 24.263141,14.228908 23.634017,14.010677 22.602373,13.509643 20.138176,12.312864 18.543436,10.437644 18.030976,8.1342334 17.809492,7.1387041 17.891293,5.7877244 18.234768,4.7685304 18.380076,4.3373557 18.486834,3.9724449 18.472006,3.9576176 18.457179,3.9427903 18.071019,4.0065367 17.613872,4.0992762 15.96025,4.4347403 14.257466,5.1283137 12.945096,6.0009489 11.776519,6.7779721 10.627347,8.1130097 10.221639,9.1648938 9.9905182,9.764123 9.9130573,10.933397 10.06056,11.596387 c 0.414266,1.862038 2.355987,3.855418 5.090791,5.226226 1.371174,0.687295 2.966085,1.284444 6.230176,2.332635 4.114204,1.321185 5.37088,1.792994 7.126288,2.675507 3.745673,1.883098 6.387196,4.832605 6.979658,7.793443 0.08081,0.403859 0.188377,0.268309 0.868027,-1.093857 z M 36.820386,14.38888 C 34.947016,9.8310792 31.137669,6.2645533 26.45644,4.685568 24.592751,4.0569431 23.839672,3.998526 23.016073,4.418695 22.552406,4.6552403 21.95664,5.3533882 21.779236,5.8680792 c -0.481829,1.3979119 0.143343,2.8633034 1.648427,3.8638811 0.821707,0.5462697 1.673929,0.8698757 3.833782,1.4557657 4.311348,1.169512 7.151602,2.31252 9.267894,3.729694 0.298409,0.19983 0.554155,0.328545 0.568325,0.286034 0.01417,-0.04251 -0.110605,-0.409068 -0.277278,-0.814574 z"
     id="path3"
     transform="scale(0.47619047)" />
  <path
     style="fill:#000000;stroke:#006600;stroke-width:0.00333984"
     d="M 19.204081,41.774281 C 10.846302,41.044924 3.7010532,35.388756 1.0814538,27.428437 0.35118242,25.209322 0.08268326,23.439202 0.08724994,20.874001 0.09187975,18.27334 0.39356928,16.444437 1.2097672,14.069077 1.5977623,12.939904 2.581102,10.877738 3.1806044,9.9360245 4.3521024,8.0958067 6.3414734,5.8483301 7.8486244,4.662365 11.755024,1.5884502 16.079245,0.07532397 20.957497,0.07532397 c 3.320618,0 6.160916,0.65243066 9.101065,2.09056013 2.160753,1.0569002 3.974687,2.3461982 5.640952,4.009445 2.653815,2.6490087 4.586633,6.0482289 5.50304,9.6781179 1.549251,6.136589 0.228375,12.598454 -3.619639,17.707666 -0.747287,0.992211 -2.272953,2.581334 -3.307805,3.445385 -3.192285,2.665399 -7.175937,4.330002 -11.343429,4.739945 -0.802563,0.07894 -2.957538,0.09504 -3.7276,0.02784 z m 5.386129,-4.067647 c 2.828837,-0.641762 5.279002,-2.128097 6.458885,-3.918131 0.247365,-0.375286 0.530375,-0.901858 0.62891,-1.170163 1.113794,-3.03276 -1.568138,-6.335841 -6.810681,-8.388069 -1.174897,-0.459921 -2.382023,-0.871669 -5.913731,-2.01716 -1.285838,-0.417055 -2.76998,-0.928109 -3.298092,-1.135677 C 12.61112,19.880881 10.062981,18.201821 8.5383782,16.387707 7.4767823,15.124521 6.6966435,13.661892 6.445277,12.463495 6.394509,12.221456 6.3298553,12.023425 6.3016024,12.023425 c -0.07402,0 -0.6927995,1.103238 -1.0334286,1.842529 -0.8166275,1.772381 -1.1351207,4.481787 -0.7207446,6.131339 0.8106464,3.227028 3.6817683,5.092769 10.8521848,7.052072 2.219236,0.606402 2.671173,0.756593 3.641902,1.210298 1.987617,0.928985 3.348717,2.15299 4.187973,3.766148 0.855601,1.644572 0.988232,3.400085 0.389808,5.159524 -0.109267,0.32126 -0.198668,0.615101 -0.198668,0.652979 0,0.107828 0.226021,0.08238 1.169581,-0.13168 z m -5.844012,-0.192776 c 0.482309,-0.216339 0.943757,-0.673339 1.231061,-1.219194 0.201779,-0.383366 0.228018,-0.524266 0.228372,-1.226342 3.54e-4,-0.697511 -0.02741,-0.849838 -0.230089,-1.262556 -0.31598,-0.643421 -0.792714,-1.160691 -1.514924,-1.643735 C 17.611131,31.59386 16.900989,31.320276 14.737045,30.727511 10.397929,29.538906 7.8559121,28.541333 5.6644652,27.167127 5.1979425,26.874581 4.7945788,26.635225 4.7681015,26.635225 c -0.1392473,0 0.8557777,2.146857 1.4678332,3.166983 1.6933801,2.822394 4.2404733,5.14284 7.2069223,6.565628 2.586794,1.240697 4.277671,1.606086 5.303341,1.146022 z m 17.275943,-8.330406 c 1.466078,-2.562372 1.912524,-5.67847 1.134694,-7.919909 C 36.864617,20.421472 36.484007,19.834112 35.73629,19.071353 34.050902,17.35206 31.592113,16.236157 26.264243,14.772537 24.001466,14.15093 22.744073,13.673843 21.74359,13.057286 19.798108,11.858367 18.526033,10.210625 18.068297,8.2966122 17.805984,7.1997575 17.869544,5.8492357 18.234339,4.7685304 18.379884,4.3373557 18.486834,3.9724449 18.472006,3.9576176 18.457179,3.9427903 18.08315,4.0045895 17.640832,4.0949493 14.110206,4.8162089 11.24359,6.7677846 10.24208,9.131978 c -0.192123,0.4535295 -0.217139,0.6259045 -0.219686,1.513763 -0.0026,0.899348 0.01975,1.055637 0.218006,1.526205 0.383614,0.910504 0.756796,1.444092 1.616033,2.31066 1.849445,1.865224 4.009026,2.922495 9.560292,4.680457 3.697441,1.170896 5.314357,1.778206 7.048643,2.647453 3.573478,1.791074 6.069931,4.437194 6.895325,7.308716 0.108901,0.378863 0.221867,0.688842 0.251035,0.688842 0.02917,0 0.213854,-0.28108 0.410413,-0.624622 z m 1.045663,-14.175045 c -0.03158,-0.103327 -0.239933,-0.5993 -0.463001,-1.102163 -1.759674,-3.9668479 -5.147164,-7.2265338 -9.217618,-8.8698539 -2.716633,-1.0967562 -4.007063,-1.140545 -4.947802,-0.167896 -1.180308,1.2203445 -1.083778,2.9538601 0.236418,4.2456717 0.938558,0.9183782 1.827519,1.3124092 4.845859,2.1479222 4.279035,1.184488 7.09592,2.325922 8.966094,3.633167 0.498349,0.348343 0.661677,0.380205 0.58005,0.113152 z"
     id="path4"
     transform="scale(0.47619047)" />
  <path
     style="fill:#000000;stroke:#006600;stroke-width:0.00333984"
     d="M 18.577861,41.706617 C 15.99275,41.391789 13.713149,40.698153 11.426426,39.530579 5.8802187,36.698753 1.7673236,31.349967 0.51552179,25.341037 0.15696606,23.61989 0.08372164,22.855922 0.08724994,20.874001 0.09085705,18.847811 0.19822258,17.859388 0.59968164,16.156477 2.440384,8.3485759 8.7932197,2.1244573 16.573957,0.5058612 c 2.146492,-0.44652623 4.944015,-0.56614226 6.971916,-0.2981041 4.637871,0.61301104 8.885994,2.6983284 12.153641,5.9659752 1.680306,1.6803059 2.863112,3.3386744 3.963772,5.5574567 1.502344,3.028522 2.152899,5.834664 2.148637,9.268056 -0.0041,3.306262 -0.657979,6.127211 -2.109558,9.101065 -1.02088,2.09148 -2.095446,3.616727 -3.754355,5.328958 -3.541206,3.65503 -8.012227,5.824936 -13.016329,6.317175 -1.143576,0.112489 -3.26227,0.09311 -4.35382,-0.03983 z m 6.425008,-4.10376 c 4.59004,-1.191261 7.559493,-4.392601 6.807304,-7.338887 -0.556871,-2.181232 -2.775817,-4.240046 -6.135152,-5.692402 -1.267937,-0.548173 -2.563617,-1.004889 -5.886468,-2.07493 C 16.627109,21.478575 14.892974,20.820034 13.45311,20.090745 9.8263609,18.253802 7.3823099,15.690891 6.5561636,12.858385 6.4557077,12.513964 6.3557132,12.176521 6.3339538,12.108513 c -0.094594,-0.295652 -1.2479447,1.975019 -1.5259671,3.004264 -0.460421,1.704488 -0.5643168,3.678192 -0.2575171,4.892034 0.4468533,1.767959 1.5611078,3.128073 3.4998827,4.272132 1.6705757,0.985797 3.7477317,1.764734 7.4381567,2.789323 1.171031,0.325118 2.402342,0.699221 2.736246,0.831339 2.419094,0.957176 4.058531,2.309482 5.004734,4.128206 0.855601,1.644572 0.988232,3.400085 0.389808,5.159524 -0.109267,0.32126 -0.198668,0.619366 -0.198668,0.66246 0,0.1034 0.594921,0.0113 1.58224,-0.244938 z m -6.531771,0.01127 c 0.536897,-0.15944 1.210047,-0.75186 1.496387,-1.316925 0.282663,-0.557809 0.353029,-1.436927 0.166397,-2.078917 -0.279421,-0.96118 -1.231327,-1.92 -2.509553,-2.527786 C 16.874419,31.333924 16.674364,31.268602 14.309417,30.60811 10.1658,29.450864 7.8091002,28.511992 5.6512401,27.158825 5.1774435,26.861713 4.7755949,26.632819 4.7582429,26.65017 c -0.053579,0.05358 0.6653866,1.682603 1.0857052,2.459977 2.2301527,4.124639 6.1648779,7.225496 10.6882609,8.423146 0.882923,0.233771 1.357293,0.253547 1.938889,0.08083 z m 17.539121,-8.411396 c 0.982594,-1.721797 1.522123,-3.680017 1.520605,-5.519034 -0.0016,-1.965268 -0.510297,-3.289629 -1.752786,-4.563478 C 34.145345,17.446317 31.593733,16.249066 26.885713,14.94782 24.449436,14.274459 23.919404,14.10872 23.172512,13.786717 20.441943,12.609501 18.631133,10.665085 18.070118,8.3078524 17.810043,7.215084 17.871067,5.8641561 18.23025,4.7629357 18.37189,4.328684 18.478162,3.9637733 18.466411,3.9520229 c -0.01175,-0.01175 -0.386424,0.053213 -0.832608,0.1443625 -2.994403,0.6117162 -5.644248,2.1936489 -6.88355,4.109414 -0.49443,0.7643116 -0.705273,1.3786552 -0.7525784,2.1928296 -0.07155,1.231467 0.2939414,2.240741 1.2347494,3.409655 1.647336,2.046747 3.941926,3.313849 8.954362,4.944717 3.279249,1.06695 5.110699,1.686756 5.947463,2.012763 1.086154,0.42317 2.98023,1.346829 3.775716,1.841254 2.800628,1.740697 4.741056,4.059821 5.450143,6.513795 0.109223,0.377993 0.222452,0.687261 0.25162,0.687261 0.02917,0 0.208489,-0.272406 0.398491,-0.605346 z M 37.067232,15.008407 C 37.035334,14.90508 36.832013,14.422867 36.615406,13.936821 34.542523,9.2854579 30.376445,5.7190916 25.44707,4.3761815 24.003853,3.9830061 23.047911,4.1690136 22.334202,4.9818849 21.710939,5.691741 21.473871,6.7498566 21.73577,7.6528907 c 0.152946,0.5273595 0.737556,1.3395455 1.259309,1.7495276 0.991486,0.7790887 1.708066,1.0685477 4.743811,1.9162357 3.748169,1.046622 6.21626,2.016029 8.164392,3.206777 0.596996,0.364899 1.116159,0.665116 1.153697,0.667148 0.03754,0.002 0.04215,-0.08085 0.01025,-0.184172 z"
     id="path5"
     transform="scale(0.47619047)" />
  <path
     style="stroke:#006600;stroke-width:0.00333984;fill-rule:evenodd;fill:#562e10;fill-opacity:1"
     d="M 19.078837,41.771995 C 17.693916,41.660204 15.60549,41.20601 14.155163,40.701184 11.06924,39.627044 8.487712,38.007698 6.1768399,35.696526 2.8500448,32.369298 0.88049401,28.358012 0.19034308,23.504125 0.02925435,22.371175 0.056048,19.222107 0.23687562,18.035137 1.4882157,9.8212192 7.1663463,3.2561551 15.071029,0.88386432 16.88891,0.33829626 18.803444,0.07532397 20.957497,0.07532397 c 3.320537,0 6.160694,0.65238261 9.101065,2.09050983 3.444438,1.6846652 6.209578,4.1073984 8.34423,7.3109627 0.723245,1.0854065 1.872235,3.4144185 2.29115,4.6441785 1.872481,5.496834 1.427142,11.399707 -1.245079,16.503292 -1.866323,3.564426 -4.832089,6.600085 -8.404138,8.602195 -2.374522,1.330903 -5.320605,2.248787 -8.076951,2.516462 -0.848473,0.0824 -3.026589,0.09868 -3.888937,0.02907 z m 5.365503,-4.035948 c 2.683128,-0.595226 5.026009,-1.911863 6.300499,-3.540716 1.788337,-2.285574 1.532307,-4.588222 -0.761208,-6.846057 -0.945222,-0.930516 -1.962184,-1.626466 -3.431902,-2.348595 -1.525163,-0.749371 -2.369743,-1.063145 -6.387444,-2.373032 -4.770203,-1.555224 -6.648373,-2.34463 -8.55834,-3.59712 C 8.9350477,17.279046 7.0946369,14.988404 6.4960139,12.670519 6.4159579,12.36054 6.3216777,12.106921 6.2865023,12.106921 c -0.1708324,0 -1.0284229,1.658173 -1.340431,2.591757 -0.4194099,1.254949 -0.5184109,1.93198 -0.5184084,3.545199 2.4e-6,1.43016 0.011296,1.535269 0.2332512,2.170896 0.6029703,1.726762 1.7920295,2.994114 3.8974264,4.154052 1.4037916,0.773398 3.9086715,1.669662 7.1733245,2.566668 1.951811,0.536284 2.692593,0.79744 3.703782,1.305733 2.714349,1.364421 4.367182,3.640239 4.540108,6.251364 0.05506,0.83135 -0.105663,1.913997 -0.391962,2.640342 -0.264881,0.672009 -0.292677,0.65899 0.860747,0.403115 z m -5.653521,-0.248383 c 0.445477,-0.215651 0.997166,-0.805067 1.234788,-1.319226 0.143831,-0.311218 0.17973,-0.542814 0.176991,-1.141864 -0.003,-0.648673 -0.03551,-0.817793 -0.23795,-1.236371 C 19.526065,32.883349 18.40971,31.967598 17.147972,31.479672 16.7978,31.344257 15.520311,30.952099 14.309108,30.60821 9.6370662,29.281706 7.514656,28.402337 5.0169165,26.758215 l -0.2433316,-0.160172 0.060207,0.248205 c 0.033114,0.136513 0.2383539,0.642953 0.4560888,1.125421 1.9772104,4.381209 5.7038223,7.738136 10.2995963,9.277862 1.575561,0.52786 2.466017,0.594098 3.201342,0.238133 z m 17.302835,-8.451928 c 1.025928,-1.862709 1.518093,-3.893602 1.411348,-5.823847 -0.110532,-1.998727 -0.844933,-3.453718 -2.36926,-4.693966 -1.794674,-1.460212 -3.979282,-2.381486 -8.871969,-3.74141 -1.168678,-0.324835 -2.47271,-0.733831 -2.897849,-0.908882 -2.835903,-1.16768 -4.72168,-3.147455 -5.295806,-5.5597786 -0.257924,-1.0837279 -0.198682,-2.4449433 0.15336,-3.5238571 0.137915,-0.4226688 0.235335,-0.7839072 0.21649,-0.8027518 -0.04607,-0.046072 -1.357927,0.2315681 -2.033003,0.4302626 -2.980836,0.8773462 -5.409366,2.7711431 -6.174313,4.8148024 -0.227575,0.607997 -0.3060358,1.5797715 -0.181305,2.2455565 0.364321,1.944673 2.453541,4.066684 5.392121,5.476755 1.363045,0.654054 2.46679,1.060081 6.140249,2.258771 1.722105,0.561942 3.619552,1.20565 4.216548,1.430463 1.374307,0.517526 3.533327,1.579405 4.508785,2.217571 2.556511,1.672525 4.376117,3.929584 5.051058,6.265388 0.109223,0.377993 0.223242,0.687261 0.253376,0.687261 0.03013,0 0.24621,-0.347553 0.48017,-0.772338 z m 1.02032,-13.873439 c 0,-0.01869 -0.166951,-0.432461 -0.371003,-0.919501 -1.6026,-3.82516 -4.602619,-6.9506129 -8.419046,-8.7710543 -1.682908,-0.8027501 -3.257105,-1.2933178 -4.157832,-1.2957073 -1.24871,-0.00331 -2.248373,0.877147 -2.489148,2.1923344 -0.271974,1.485604 0.717421,2.9292286 2.620392,3.8234102 0.703619,0.330621 1.364001,0.543389 3.882564,1.250922 3.344873,0.939665 5.847994,1.938339 7.723381,3.081409 1.017954,0.620454 1.210692,0.722052 1.210692,0.638187 z"
     id="path6"
     transform="scale(0.47619047)" />
</svg>
