<?xml version="1.0" encoding="UTF-8" standalone="no"?>
<svg
   version="1.1"
   width="20"
   height="20"
   viewBox="0 0 20 20"
   id="svg1"
   sodipodi:docname="menu.svg"
   inkscape:version="1.3 (0e150ed6c4, 2023-07-21)"
   xmlns:inkscape="http://www.inkscape.org/namespaces/inkscape"
   xmlns:sodipodi="http://sodipodi.sourceforge.net/DTD/sodipodi-0.dtd"
   xmlns="http://www.w3.org/2000/svg"
   xmlns:svg="http://www.w3.org/2000/svg"
   xmlns:rdf="http://www.w3.org/1999/02/22-rdf-syntax-ns#"
   xmlns:cc="http://creativecommons.org/ns#"
   xmlns:dc="http://purl.org/dc/elements/1.1/">
  <defs
     id="defs1" />
  <sodipodi:namedview
     id="namedview1"
     pagecolor="#ffffff"
     bordercolor="#000000"
     borderopacity="0.25"
     inkscape:showpageshadow="2"
     inkscape:pageopacity="0.0"
     inkscape:pagecheckerboard="0"
     inkscape:deskcolor="#d1d1d1"
     inkscape:zoom="17.964932"
     inkscape:cx="17.868144"
     inkscape:cy="12.162584"
     inkscape:window-width="1920"
     inkscape:window-height="1009"
     inkscape:window-x="-8"
     inkscape:window-y="-8"
     inkscape:window-maximized="1"
     inkscape:current-layer="svg1" />
  <title
     id="title1">bars</title>
  <path
     d="m 19.937976,16.937365 v 1.966468 c 0,0.537698 -0.373293,0.983233 -0.823805,0.983233 H 0.99075107 c -0.45051084,0 -0.82375907,-0.445535 -0.82375907,-0.983233 v -1.966468 c 0,-0.537698 0.37329329,-0.983234 0.82375907,-0.983234 H 19.114171 c 0.450512,0 0.823805,0.445536 0.823805,0.983234 z m 0,-7.8657644 v 1.9664674 c 0,0.537699 -0.373293,0.983234 -0.823805,0.983234 H 0.99075107 c -0.45051084,0 -0.82375907,-0.445535 -0.82375907,-0.983234 V 9.0716006 c 0,-0.5376974 0.37329329,-0.983234 0.82375907,-0.983234 H 19.114171 c 0.450512,0 0.823805,0.4455366 0.823805,0.983234 z m 0,-7.8657647 V 3.172304 c 0,0.537698 -0.373293,0.983234 -0.823805,0.983234 H 0.99075107 C 0.54024023,4.155538 0.166992,3.710002 0.166992,3.172304 V 1.2058359 c 0,-0.53769734 0.37329329,-0.98317989 0.82375907,-0.98317989 H 19.114171 c 0.450512,0 0.823805,0.44548255 0.823805,0.98317989 z"
     id="path1"
     style="stroke-width:0.0492178" />
  <metadata
     id="metadata1">
    <rdf:RDF>
      <cc:Work
         rdf:about="">
        <dc:title>bars</dc:title>
      </cc:Work>
    </rdf:RDF>
  </metadata>
  <path
     style="fill:#562e10;fill-rule:evenodd;stroke:#006600;stroke-width:0.00222656"
     d="M 0.71909195,4.0654622 C 0.55047754,3.9968775 0.31849203,3.7002375 0.24760815,3.4625755 0.20825542,3.3306323 0.1926829,2.825244 0.20437729,2.0595681 0.22182808,0.91699946 0.22857229,0.85327609 0.353274,0.65270248 c 0.27320226,-0.439426 -0.62366104,-0.40221447 9.694078,-0.40221447 9.1319,0 9.214059,9.7902e-4 9.40311,0.11204974 0.10535,0.061895 0.248617,0.22153796 0.320068,0.35665506 0.123961,0.23441386 0.129351,0.29533819 0.129351,1.46224609 0,1.3394515 -0.02131,1.4517195 -0.33078,1.7428732 l -0.177498,0.166992 -9.278322,0.010644 C 5.0102047,4.1078022 0.78281938,4.0913836 0.71909195,4.0654622 Z"
     id="path2" />
  <path
     style="fill:#562e10;fill-rule:evenodd;stroke:#006600;stroke-width:0.00222656"
     d="M 0.53007155,11.767456 C 0.40061487,11.650499 0.28486629,11.482573 0.25190162,11.363892 0.22085041,11.252099 0.1958553,10.647132 0.19635693,10.01952 c 0.001,-1.2517233 0.038211,-1.4313715 0.35742016,-1.7255838 l 0.15098333,-0.13916 9.31675358,-0.014398 9.316755,-0.014398 0.205601,0.1805205 c 0.335012,0.2941447 0.356011,0.3973237 0.356011,1.7493213 0,1.1208 -0.0087,1.22671 -0.118927,1.454491 -0.06541,0.135118 -0.196916,0.293226 -0.292236,0.35135 -0.168389,0.102681 -0.436803,0.105687 -9.455121,0.105889 l -9.28181225,2.08e-4 z"
     id="path3" />
  <path
     style="fill:#562e10;fill-rule:evenodd;stroke:#006600;stroke-width:0.00222656"
     d="M 0.71327412,19.790819 C 0.61573165,19.748251 0.46543884,19.606994 0.3792901,19.476915 L 0.22265601,19.240406 0.20671687,17.983719 C 0.19129473,16.767794 0.19490575,16.719013 0.31804487,16.479803 0.3880418,16.343827 0.51603048,16.18101 0.60246417,16.117987 0.75942035,16.003543 0.77115683,16.003382 10.014646,15.989 l 9.255031,-0.0144 0.189858,0.126177 c 0.104422,0.0694 0.246217,0.23774 0.315101,0.374094 0.118353,0.234276 0.125245,0.314002 0.125245,1.448936 0,1.135768 -0.0068,1.214336 -0.125245,1.446127 -0.06888,0.134809 -0.195962,0.296672 -0.282396,0.359695 -0.156982,0.114463 -0.167121,0.114599 -9.379384,0.126586 -7.7715921,0.01011 -9.25012877,-1.75e-4 -9.39958188,-0.0654 z"
     id="path4" />
</svg>
