<?xml version="1.0" encoding="UTF-8" standalone="no"?>
<svg
   version="1.1"
   width="15.976274"
   height="17.188725"
   viewBox="0 0 159.76274 171.88724"
   id="svg1"
   sodipodi:docname="shopping-cart.svg"
   inkscape:version="1.3 (0e150ed6c4, 2023-07-21)"
   xmlns:inkscape="http://www.inkscape.org/namespaces/inkscape"
   xmlns:sodipodi="http://sodipodi.sourceforge.net/DTD/sodipodi-0.dtd"
   xmlns="http://www.w3.org/2000/svg"
   xmlns:svg="http://www.w3.org/2000/svg"
   xmlns:rdf="http://www.w3.org/1999/02/22-rdf-syntax-ns#"
   xmlns:cc="http://creativecommons.org/ns#"
   xmlns:dc="http://purl.org/dc/elements/1.1/">
  <defs
     id="defs1" />
  <sodipodi:namedview
     id="namedview1"
     pagecolor="#ffffff"
     bordercolor="#000000"
     borderopacity="0.25"
     inkscape:showpageshadow="2"
     inkscape:pageopacity="0.0"
     inkscape:pagecheckerboard="0"
     inkscape:deskcolor="#d1d1d1"
     inkscape:zoom="17.964932"
     inkscape:cx="29.668913"
     inkscape:cy="8.5444242"
     inkscape:window-width="1920"
     inkscape:window-height="1009"
     inkscape:window-x="-8"
     inkscape:window-y="-8"
     inkscape:window-maximized="1"
     inkscape:current-layer="svg1" />
  <title
     id="title1">shopping-cart</title>
  <path
     d="m 61.447442,156.26081 c 0,8.54556 -5.568504,15.62643 -12.289287,15.62643 -6.720782,0 -12.289622,-7.08087 -12.289622,-15.62643 0,-8.54556 5.56884,-15.62641 12.289622,-15.62641 6.720783,0 12.289624,7.08085 12.289624,15.62641 z m 86.026018,0 c 0,8.54556 -5.56885,15.62643 -12.28963,15.62643 -6.72079,0 -12.28962,-7.08087 -12.28962,-15.62643 0,-8.54556 5.56883,-15.62641 12.28962,-15.62641 6.72078,0 12.28963,7.08085 12.28963,15.62641 z M 159.76274,23.438354 V 85.94319 c 0,3.906607 -2.40032,7.324833 -5.47274,7.813212 L 54.054246,108.65005 c 0.480199,2.80807 1.248049,5.61572 1.248049,8.54556 0,2.80807 -1.344157,5.37175 -2.30422,7.81321 h 88.330235 c 3.36039,0 6.14481,3.54043 6.14481,7.81322 0,4.27278 -2.78442,7.81321 -6.14481,7.81321 H 43.012672 c -3.360391,0 -6.144476,-3.54043 -6.144476,-7.81321 0,-3.7844 4.320455,-12.94054 5.856491,-16.72496 L 25.730515,15.625569 H 6.1444754 C 2.7840841,15.625569 0,12.085568 0,7.8127846 0,3.540001 2.7844201,0 6.1444754,0 H 30.723384 c 6.432799,0 6.625013,9.7663012 7.585077,15.626424 H 153.61793 c 3.36039,0 6.14481,3.540001 6.14481,7.812785 z"
     id="path1"
     style="stroke-width:0.378923" />
  <metadata
     id="metadata1">
    <rdf:RDF>
      <cc:Work
         rdf:about="">
        <dc:title>shopping-cart</dc:title>
      </cc:Work>
    </rdf:RDF>
  </metadata>
  <path
     style="fill:#562e10;fill-rule:evenodd;stroke:#006600;stroke-width:0.00222656"
     d="m 4.473774,17.032851 c -0.46082,-0.243504 -0.7377894,-0.764658 -0.7408066,-1.393925 -0.00175,-0.365051 0.022049,-0.469018 0.1815133,-0.792936 0.198704,-0.403625 0.428091,-0.618791 0.7708553,-0.723065 l 0.2130961,-0.06483 -0.3992748,-0.0293 C 4.0318118,13.994501 3.8490279,13.866929 3.752243,13.507497 3.6772272,13.22891 3.7372454,12.975005 4.0635754,12.190416 L 4.3066719,11.605944 3.457743,6.5961842 2.6088141,1.586424 1.5521958,1.558592 C 0.36925487,1.5274326 0.28694709,1.5033396 0.11329756,1.1374004 -0.00987693,0.87782948 0.02235585,0.52052922 0.19021274,0.28479593 0.37596719,0.02392787 0.60029239,-0.00984276 2.0145915,0.01014817 L 3.2656694,0.027832 3.4232032,0.204251 C 3.573171,0.37219708 3.6703113,0.69519495 3.7844787,1.405516 l 0.03355,0.20874 h 5.845857 c 3.9168813,0 5.8813253,0.018982 5.9533443,0.057525 0.05912,0.031639 0.157666,0.1558849 0.218996,0.2761025 0.107863,0.2114268 0.111508,0.3265424 0.111424,3.5188869 -7.9e-5,3.0320459 -0.008,3.3158243 -0.09741,3.491177 -0.05353,0.1049768 -0.159948,0.2350602 -0.236486,0.2890738 -0.106038,0.074833 -1.311648,0.2712607 -5.065424,0.8253008 -2.709445,0.399901 -4.9849009,0.740532 -5.0565688,0.756956 -0.093686,0.02147 -0.1203251,0.05587 -0.094792,0.122409 0.019532,0.0509 0.049706,0.281553 0.067053,0.512561 0.025392,0.338143 0.00943,0.482407 -0.081903,0.740084 L 5.2686742,12.5244 h 4.5101377 4.5101371 l 0.184868,0.184868 c 0.318022,0.318022 0.315923,0.852945 -0.0045,1.154402 -0.116469,0.109565 -0.221583,0.141546 -0.54366,0.165411 l -0.399275,0.02958 0.222656,0.06645 c 0.70217,0.20957 1.134926,1.15748 0.898976,1.969121 -0.245231,0.843561 -0.921539,1.251379 -1.561489,0.941585 -0.860144,-0.416389 -1.01492,-1.927709 -0.269836,-2.63484 0.08991,-0.08533 0.286377,-0.203144 0.436586,-0.261801 0.27277,-0.106517 0.267781,-0.106648 -4.0408528,-0.106352 l -4.3139601,2.97e-4 0.2902909,0.111593 c 0.3592056,0.138084 0.6964164,0.503483 0.8267398,0.89585 0.1444653,0.434945 0.090942,1.057336 -0.124035,1.44233 -0.3266274,0.584944 -0.9175841,0.814194 -1.4176538,0.549949 z"
     id="path2"
     transform="scale(10)" />
</svg>
