<?xml version="1.0" encoding="UTF-8" standalone="no"?>
<svg
   version="1.1"
   width="15.910458"
   height="17.596672"
   viewBox="0 0 159.10299 175.96496"
   id="svg1"
   sodipodi:docname="user.svg"
   inkscape:version="1.3 (0e150ed6c4, 2023-07-21)"
   xmlns:inkscape="http://www.inkscape.org/namespaces/inkscape"
   xmlns:sodipodi="http://sodipodi.sourceforge.net/DTD/sodipodi-0.dtd"
   xmlns="http://www.w3.org/2000/svg"
   xmlns:svg="http://www.w3.org/2000/svg"
   xmlns:rdf="http://www.w3.org/1999/02/22-rdf-syntax-ns#"
   xmlns:cc="http://creativecommons.org/ns#"
   xmlns:dc="http://purl.org/dc/elements/1.1/">
  <defs
     id="defs1" />
  <sodipodi:namedview
     id="namedview1"
     pagecolor="#ffffff"
     bordercolor="#000000"
     borderopacity="0.25"
     inkscape:showpageshadow="2"
     inkscape:pageopacity="0.0"
     inkscape:pagecheckerboard="0"
     inkscape:deskcolor="#d1d1d1"
     inkscape:zoom="35.929863"
     inkscape:cx="1.7255841"
     inkscape:cy="8.2521884"
     inkscape:window-width="1920"
     inkscape:window-height="1009"
     inkscape:window-x="-8"
     inkscape:window-y="-8"
     inkscape:window-maximized="1"
     inkscape:current-layer="svg1" />
  <title
     id="title1">user</title>
  <path
     d="m 159.10281,145.60653 c 0.0529,16.72573 -11.83637,30.35844 -26.37947,30.35844 H 26.572397 C 12.029719,175.96497 0.05375031,162.33226 8.4139141e-4,145.60653 -0.09446799,115.47705 7.875017,80.650695 40.44073,80.650695 c 10.096872,9.050513 23.787652,14.663981 38.951572,14.663981 15.163923,0 28.819628,-5.613468 38.858808,-14.663981 32.56615,0 40.75551,34.826355 40.85082,64.955835 z M 126.96133,43.991543 c 0.0768,24.287069 -21.24025,43.991144 -47.59135,43.991144 -26.351098,0 -47.793272,-19.704476 -47.870099,-43.991144 C 31.423051,19.704875 52.74013,0 79.091662,0 105.4432,0 126.8845,19.704475 126.96133,43.991543 Z"
     id="path1"
     style="fill:#000000;fill-opacity:1;fill-rule:nonzero;stroke-width:0.420443;stroke-dasharray:none" />
  <metadata
     id="metadata1">
    <rdf:RDF>
      <cc:Work
         rdf:about="">
        <dc:title>user</dc:title>
      </cc:Work>
    </rdf:RDF>
  </metadata>
  <path
     style="fill:#562e10;fill-rule:evenodd;stroke:#006600;stroke-width:0.00111328"
     d="M 7.4899718,8.7630084 C 5.5717249,8.5939326 3.923241,7.3447828 3.3692162,5.6404785 3.2195835,5.1801748 3.1757732,4.8907629 3.1768383,4.3696242 3.1775846,4.0044901 3.1904213,3.8505182 3.2394884,3.6181602 3.4202983,2.7619326 3.814674,2.0388986 4.438775,1.4194321 4.8100967,1.0508677 5.155569,0.80405049 5.6459534,0.5569825 6.4658159,0.14391517 7.2907111,-0.02150669 8.2601192,0.03274603 9.7376756,0.11543716 11.155796,0.90817978 11.958191,2.1000025 c 0.456328,0.677798 0.678092,1.3517176 0.710221,2.1582937 0.03988,1.0010161 -0.275108,1.9466239 -0.911161,2.7353876 -0.83149,1.0311233 -2.0495716,1.6577964 -3.4475182,1.7736633 -0.3631386,0.030098 -0.4332678,0.029727 -0.819761,-0.00434 z"
     id="path2"
     transform="scale(9.9999001)" />
  <path
     style="fill:#562e10;fill-rule:evenodd;stroke:#006600;stroke-width:0.00111328"
     d="M 2.4353001,17.572093 C 1.9725368,17.500605 1.6867894,17.394831 1.3539751,17.171822 0.7137895,16.742854 0.26105474,16.050842 0.07972094,15.224105 0.03582202,15.023961 0.02827768,14.873963 0.0307263,14.249985 0.03984454,11.9264 0.57806939,10.131845 1.5802507,9.0835452 2.1376738,8.5004704 2.8163748,8.1820231 3.6789573,8.0988293 L 4.0143574,8.0664808 4.2476549,8.2548526 C 5.5107772,9.2747379 7.1953567,9.7234723 8.8356009,9.4769791 9.8387152,9.3262328 10.821704,8.8994122 11.592029,8.2801192 l 0.264404,-0.2125644 0.222656,0.018469 c 0.502163,0.041654 0.988546,0.1646953 1.328618,0.3361049 1.323282,0.6669839 2.126618,2.1915323 2.39999,4.5546353 0.06986,0.603854 0.105469,1.547586 0.0713,1.889385 -0.129207,1.292443 -0.880241,2.282818 -1.996718,2.633035 l -0.244596,0.07672 -5.5664006,0.0035 c -3.0615201,0.0019 -5.5977113,-0.0014 -5.6359803,-0.0073 z"
     id="path3"
     transform="scale(9.9999001)" />
</svg>
